<?xml version="1.0" encoding="UTF-8" standalone="no"?>
<!-- Generator: Adobe Illustrator 18.0.0, SVG Export Plug-In . SVG Version: 6.00 Build 0)  -->

<svg
   xmlns:dc="http://purl.org/dc/elements/1.1/"
   xmlns:cc="http://creativecommons.org/ns#"
   xmlns:rdf="http://www.w3.org/1999/02/22-rdf-syntax-ns#"
   xmlns:svg="http://www.w3.org/2000/svg"
   xmlns="http://www.w3.org/2000/svg"
   xmlns:sodipodi="http://sodipodi.sourceforge.net/DTD/sodipodi-0.dtd"
   xmlns:inkscape="http://www.inkscape.org/namespaces/inkscape"
   version="1.1"
   id="Capa_1"
   x="0px"
   y="0px"
   viewBox="0 0 400.00001 379.45945"
   xml:space="preserve"
   inkscape:version="0.91 r13725"
   sodipodi:docname="covfefe.svg"
   width="400"
   height="379.45944"
   inkscape:export-filename="/home/karl/git/covfefe/public/assets/images/covfefe.png"
   inkscape:export-xdpi="90"
   inkscape:export-ydpi="90"><metadata
     id="metadata45"><rdf:RDF><cc:Work
         rdf:about=""><dc:format>image/svg+xml</dc:format><dc:type
           rdf:resource="http://purl.org/dc/dcmitype/StillImage" /><dc:title></dc:title></cc:Work></rdf:RDF></metadata><defs
     id="defs43" /><sodipodi:namedview
     pagecolor="#ffffff"
     bordercolor="#666666"
     borderopacity="1"
     objecttolerance="10"
     gridtolerance="10"
     guidetolerance="10"
     inkscape:pageopacity="0"
     inkscape:pageshadow="2"
     inkscape:window-width="1855"
     inkscape:window-height="1056"
     id="namedview41"
     showgrid="false"
     fit-margin-top="0"
     fit-margin-left="0"
     fit-margin-right="0"
     fit-margin-bottom="0"
     inkscape:zoom="1.2503775"
     inkscape:cx="-41.987319"
     inkscape:cy="89.525503"
     inkscape:window-x="65"
     inkscape:window-y="24"
     inkscape:window-maximized="1"
     inkscape:current-layer="Capa_1" /><g
     id="g3"
     transform="matrix(2.1192839,0,0,2.1192839,0,-10.270503)"><path
       d="m 164.243,99.766 -13.042,0 0.689,-14.462 c 0.078,-1.639 -0.519,-3.239 -1.651,-4.426 -1.132,-1.187 -2.702,-1.859 -4.342,-1.859 l -131.993,0 c -1.641,0 -3.21,0.672 -4.342,1.859 -1.132,1.188 -1.729,2.787 -1.651,4.426 l 2.664,55.884 c 0.658,13.81 9.117,25.43 21.002,30.709 l -25.577,0 c -3.313,0 -6,2.687 -6,6 0,3.313 2.687,6 6,6 l 148.647,0 c 3.313,0 6,-2.687 6,-6 0,-3.313 -2.687,-6 -6,-6 l -26.422,0 c 9.634,-4.28 17.01,-12.727 19.81,-23.131 l 16.208,0 c 13.509,0 24.5,-10.991 24.5,-24.5 0,-13.509 -10.991,-24.5 -24.5,-24.5 z m -50.422,63.181 -67.84,0 c -12.536,0 -22.823,-9.809 -23.42,-22.331 l -2.364,-49.599 119.407,0 -2.363,49.599 c -0.597,12.522 -10.884,22.331 -23.42,22.331 z m 50.422,-26.181 -14.805,0 1.192,-25.013 c 0.089,0.004 0.177,0.013 0.267,0.013 l 13.346,0 c 6.893,0 12.5,5.607 12.5,12.5 0,6.893 -5.607,12.5 -12.5,12.5 z"
       id="path5"
       inkscape:connector-curvature="0" /><path
       d="m 62.27,69.184 c 0.958,0.566 2.009,0.836 3.047,0.836 2.052,0 4.051,-1.054 5.171,-2.948 1.687,-2.853 0.741,-6.532 -2.112,-8.218 -3.336,-1.972 -5.642,-5.61 -6.326,-9.98 -0.712,-4.55 0.477,-9.082 3.178,-12.121 0.024,-0.027 0.048,-0.054 0.071,-0.082 0.653,-0.762 1.306,-1.511 1.953,-2.254 5.55,-6.374 11.29,-12.963 12.938,-22.553 0.562,-3.266 -1.631,-6.369 -4.896,-6.93 -3.266,-0.561 -6.369,1.63 -6.93,4.896 -1.079,6.276 -5.288,11.109 -10.161,16.705 -0.657,0.754 -1.319,1.515 -1.981,2.287 -5.031,5.688 -7.284,13.872 -6.027,21.905 1.238,7.926 5.64,14.653 12.075,18.457 z"
       id="path7"
       inkscape:connector-curvature="0" /><path
       d="m 80.891,55.635 c 1.981,5.101 5.515,9.773 9.952,13.155 1.086,0.828 2.364,1.229 3.633,1.229 1.808,0 3.596,-0.814 4.776,-2.363 2.009,-2.635 1.501,-6.4 -1.135,-8.409 -2.664,-2.031 -4.866,-4.93 -6.04,-7.955 -2.339,-6.023 -0.123,-12.025 7.411,-20.07 5.341,-5.704 8.755,-12.422 9.872,-19.43 0.521,-3.272 -1.708,-6.348 -4.981,-6.87 -3.272,-0.522 -6.348,1.708 -6.87,4.981 -0.749,4.699 -3.03,9.112 -6.78,13.117 -3.935,4.201 -15.907,16.986 -9.838,32.615 z"
       id="path9"
       inkscape:connector-curvature="0" /></g><g
     id="g11"
     transform="translate(0,195.56245)" /><g
     id="g13"
     transform="translate(0,195.56245)" /><g
     id="g15"
     transform="translate(0,195.56245)" /><g
     id="g17"
     transform="translate(0,195.56245)" /><g
     id="g19"
     transform="translate(0,195.56245)" /><g
     id="g21"
     transform="translate(0,195.56245)" /><g
     id="g23"
     transform="translate(0,195.56245)" /><g
     id="g25"
     transform="translate(0,195.56245)" /><g
     id="g27"
     transform="translate(0,195.56245)" /><g
     id="g29"
     transform="translate(0,195.56245)" /><g
     id="g31"
     transform="translate(0,195.56245)" /><g
     id="g33"
     transform="translate(0,195.56245)" /><g
     id="g35"
     transform="translate(0,195.56245)" /><g
     id="g37"
     transform="translate(0,195.56245)" /><g
     id="g39"
     transform="translate(0,195.56245)" /></svg>